# xmcd CD database file
#
# Track frame offsets:
#	150
#	16071
#	32988
#	46019
#	61765
#	81374
#	95204
#	110604
#	127809
#	142644
#
# Disc length: 2111 seconds
#
# Revision: 0
# Processed by: cddbd v1.5.2PL0 Copyright (c) Steve Scherf et al.
# Submitted via: CDex 1.51
#
DISCID=76083d0a
DTITLE=Jara Johnson - That's What I Call Home
DYEAR=2009
DGENRE=Country
TTITLE0=01. Where I'm Coming From
TTITLE1=02. The Last Time
TTITLE2=03. What Drives You
TTITLE3=04. His To Break
TTITLE4=05. Don't Walk Away
TTITLE5=06. It All Could Have Ended There
TTITLE6=07. That's What I Call Home
TTITLE7=08. Best Friends
TTITLE8=09. I Could Learn To Follow You
TTITLE9=10. Give Me Love
EXTD=YEAR: 2009
EXTT0=
EXTT1=
EXTT2=
EXTT3=
EXTT4=
EXTT5=
EXTT6=
EXTT7=
EXTT8=
EXTT9=
PLAYORDER=
